<?xml version="1.0" standalone="no"?>
<!DOCTYPE svg PUBLIC "-//W3C//DTD SVG 20010904//EN"
 "http://www.w3.org/TR/2001/REC-SVG-20010904/DTD/svg10.dtd">
<svg version="1.0" xmlns="http://www.w3.org/2000/svg"
 width="500.000000pt" height="500.000000pt" viewBox="0 0 500.000000 500.000000"
 preserveAspectRatio="xMidYMid meet">

<g transform="translate(0.000000,500.000000) scale(0.100000,-0.100000)"
fill="#000000" stroke="none">
<path d="M960 2915 c0 -131 2 -155 15 -155 13 0 15 24 15 155 0 131 -2 155
-15 155 -13 0 -15 -24 -15 -155z"/>
<path d="M2253 2963 l-62 -4 -6 -42 c-19 -135 -83 -732 -79 -736 7 -7 108 -1
116 7 3 4 14 122 23 262 9 140 17 255 18 257 2 1 11 -116 20 -260 10 -144 22
-264 27 -267 4 -3 33 -3 63 -2 l55 4 61 206 c108 365 108 365 56 40 -20 -121
-35 -228 -33 -236 2 -13 15 -15 63 -13 33 1 61 4 62 5 1 1 21 173 45 383 28
250 39 385 33 390 -6 5 -42 7 -81 5 l-70 -3 -84 -290 c-46 -159 -85 -287 -87
-286 -2 2 -13 132 -24 288 -20 258 -27 305 -49 297 -3 -1 -33 -3 -67 -5z"/>
<path d="M2980 2959 c-32 -13 -78 -56 -96 -92 -38 -73 -84 -347 -84 -497 1
-121 55 -190 155 -198 95 -8 159 27 200 108 50 99 99 469 74 562 -15 57 -41
92 -83 112 -38 18 -127 20 -166 5z m98 -125 c19 -13 22 -24 22 -81 0 -83 -28
-333 -44 -386 -6 -22 -23 -49 -38 -60 -26 -19 -28 -19 -54 -2 l-27 17 6 137
c7 153 30 309 52 351 22 42 47 49 83 24z"/>
<path d="M3443 2963 c-103 -4 -96 2 -106 -90 -6 -49 0 -53 63 -46 l46 5 -37
-323 c-21 -178 -33 -326 -29 -329 5 -3 35 -3 67 0 l58 5 37 320 c20 176 37
321 38 323 0 1 19 2 43 2 23 0 47 4 54 8 6 4 15 35 19 70 l7 62 -84 -2 c-46
-1 -126 -4 -176 -5z"/>
<path d="M3895 2956 c-92 -41 -142 -185 -165 -480 -15 -190 5 -256 90 -290 81
-32 171 -14 225 45 59 65 99 239 111 484 5 113 4 123 -18 164 -34 66 -66 85
-146 88 -42 2 -79 -2 -97 -11z m109 -122 c21 -20 21 -138 1 -304 -20 -160 -30
-194 -62 -219 -32 -26 -38 -26 -63 -1 -16 16 -20 33 -20 88 0 79 26 309 41
367 19 72 68 105 103 69z"/>
<path d="M4355 2962 c-25 -6 -30 -13 -36 -47 -17 -106 -82 -713 -77 -726 4
-10 21 -13 66 -11 l60 4 5 46 c4 26 12 96 18 156 l12 109 59 -148 c32 -81 62
-153 67 -159 6 -7 33 -9 73 -6 49 4 62 8 60 20 -2 8 -33 84 -70 169 -62 145
-65 155 -47 165 43 25 95 81 117 124 31 66 33 197 2 238 -44 59 -66 68 -177
71 -56 1 -115 -1 -132 -5z m175 -130 c42 -34 23 -151 -31 -197 -37 -31 -79
-34 -79 -5 0 10 5 64 11 120 l12 100 32 0 c18 0 43 -8 55 -18z"/>
<path d="M532 2917 c2 -7 55 -63 119 -125 105 -101 139 -127 139 -105 0 4 -53
61 -117 125 -107 108 -150 139 -141 105z"/>
<path d="M900 2576 c0 -7 8 -35 19 -62 155 -404 317 -812 324 -822 8 -10 32 8
103 79 l92 92 39 -31 c21 -17 67 -60 103 -96 60 -61 100 -83 100 -53 -1 17
-225 227 -243 227 -8 0 -51 -39 -94 -86 l-79 -86 -113 288 c-63 159 -136 340
-163 403 -26 63 -47 116 -45 117 3 3 217 -73 625 -222 l183 -67 -80 -81 c-45
-45 -81 -87 -81 -93 0 -17 239 -235 250 -228 18 11 10 33 -22 60 -18 15 -66
59 -107 97 l-73 70 86 87 c47 47 86 91 86 97 0 7 -89 43 -197 82 -523 185
-689 242 -700 242 -7 0 -13 -6 -13 -14z"/>
<path d="M387 2484 c-20 -20 7 -24 159 -24 128 0 165 3 162 13 -4 9 -46 13
-159 15 -86 1 -158 -1 -162 -4z"/>
</g>
</svg>
