<?xml version="1.0" standalone="no"?>
<!DOCTYPE svg PUBLIC "-//W3C//DTD SVG 20010904//EN"
 "http://www.w3.org/TR/2001/REC-SVG-20010904/DTD/svg10.dtd">
<svg version="1.0" xmlns="http://www.w3.org/2000/svg"
 width="500.000000pt" height="500.000000pt" viewBox="0 0 500.000000 500.000000"
 preserveAspectRatio="xMidYMid meet">

<g transform="translate(0.000000,500.000000) scale(0.100000,-0.100000)"
fill="#000000" stroke="none">
<path d="M0 2500 l0 -2500 2500 0 2500 0 0 2500 0 2500 -2500 0 -2500 0 0
-2500z m2730 753 c0 -35 -15 -40 -135 -46 -257 -13 -527 -108 -733 -258 l-83
-61 43 -27 c122 -78 186 -237 149 -368 l-9 -31 91 -32 c51 -18 95 -36 99 -39
5 -4 -13 -27 -38 -51 l-45 -45 53 -47 c29 -25 49 -50 45 -54 -4 -5 -33 18 -65
49 l-56 57 37 38 c20 21 37 41 37 44 0 4 -37 19 -82 34 -73 24 -82 25 -93 11
-10 -14 -21 -12 -104 18 -51 18 -90 28 -88 22 3 -7 33 -84 68 -172 35 -88 65
-162 67 -165 2 -2 19 14 38 38 20 23 41 42 47 42 13 0 117 -100 117 -113 0 -5
-26 14 -57 42 l-57 51 -47 -46 -48 -47 -14 34 c-7 19 -42 107 -77 196 -49 126
-67 163 -83 167 -12 3 -23 4 -25 2 -1 -2 17 -54 42 -115 l45 -112 -27 -10
c-15 -6 -64 -9 -109 -7 l-82 3 31 -58 c77 -145 247 -258 491 -326 417 -117
808 -95 1069 60 133 78 253 212 305 339 30 74 29 47 -1 -34 -96 -255 -361
-444 -682 -487 -110 -14 -377 -6 -492 15 -412 76 -651 222 -733 447 -18 49
-29 63 -74 93 -100 66 -151 173 -143 299 8 119 77 221 187 274 49 24 68 28
148 28 90 1 94 2 125 32 198 187 566 326 876 332 62 1 72 -1 72 -16z m246
-158 c144 -32 280 -109 373 -211 99 -108 140 -207 146 -354 4 -83 3 -88 -5
-40 -16 97 -32 154 -58 205 -100 202 -327 341 -589 361 -152 11 -365 -31 -529
-106 l-64 -29 0 24 c0 27 35 49 146 91 201 75 408 96 580 59z m-402 -537 c3
-35 10 -101 14 -148 l7 -85 39 135 c21 74 43 141 48 148 11 13 64 17 71 5 2
-5 -5 -91 -17 -193 l-21 -185 -33 -3 c-32 -3 -33 -3 -28 30 3 18 13 73 21 122
8 49 13 91 12 93 -2 1 -19 -52 -39 -120 -34 -119 -36 -122 -65 -125 -29 -3
-30 -1 -37 44 -3 26 -6 73 -6 106 0 37 -4 57 -10 53 -5 -3 -10 -37 -10 -74 0
-38 -3 -83 -6 -100 -6 -26 -11 -31 -36 -31 -29 0 -30 1 -24 38 3 20 13 102 21
182 9 80 18 151 20 158 3 6 20 12 39 12 l34 0 6 -62z m395 52 c33 -17 44 -64
37 -148 -11 -114 -25 -169 -53 -202 -21 -25 -32 -30 -69 -30 -69 0 -84 22 -84
121 0 83 22 203 43 230 28 36 88 50 126 29z m267 -12 c-3 -13 -6 -29 -6 -35 0
-7 -11 -13 -25 -13 -29 0 -30 -4 -45 -145 -19 -178 -18 -175 -51 -175 -35 0
-35 3 -14 175 19 151 19 145 -10 145 -21 0 -25 5 -25 29 0 34 9 38 114 40 66
1 68 0 62 -21z m199 0 l28 -22 -6 -110 c-9 -183 -37 -236 -121 -236 -37 0 -48
5 -66 28 -20 24 -22 35 -17 114 7 114 33 203 65 228 33 26 83 25 117 -2z m259
1 c22 -18 26 -28 26 -76 0 -50 -3 -58 -35 -90 -19 -19 -35 -39 -35 -43 0 -5
14 -38 30 -75 17 -37 30 -71 30 -76 0 -5 -15 -9 -33 -9 -31 0 -33 3 -62 78
l-30 77 -9 -77 -9 -78 -34 0 c-34 0 -35 0 -29 38 3 20 13 102 22 182 8 80 17
151 19 158 7 22 118 16 149 -9z"/>
<path d="M2891 2541 c-14 -25 -36 -214 -28 -235 4 -9 15 -16 26 -16 28 0 43
56 45 169 1 82 -1 96 -16 99 -9 2 -21 -6 -27 -17z"/>
<path d="M3351 2546 c-15 -18 -31 -115 -31 -193 0 -56 2 -63 20 -63 10 0 24 8
29 19 14 25 34 197 27 227 -7 27 -27 31 -45 10z"/>
<path d="M3596 2504 c-4 -31 -5 -59 -2 -61 10 -10 48 20 57 45 15 39 4 72 -25
72 -21 0 -24 -6 -30 -56z"/>
</g>
</svg>
